<svg xmlns="http://www.w3.org/2000/svg" xmlns:svg="http://www.w3.org/2000/svg" id="svg2" width="100" height="100" version="1.1" viewBox="0 0 100 100"><defs id="defs4"><clipPath id="clipPath4376-6" clipPathUnits="userSpaceOnUse"><ellipse style="opacity:1;fill:#67a100;fill-opacity:1;stroke:none;stroke-width:2;stroke-miterlimit:4;stroke-dasharray:none;stroke-opacity:1" id="ellipse4378-8" cx="50" cy="992.862" rx="21" ry="20.5"/></clipPath><clipPath id="clipPath4382-2" clipPathUnits="userSpaceOnUse"><ellipse style="opacity:1;fill:#67a100;fill-opacity:1;stroke:none;stroke-width:2;stroke-miterlimit:4;stroke-dasharray:none;stroke-opacity:1" id="ellipse4384-3" cx="50" cy="992.862" rx="21" ry="21.5"/></clipPath><clipPath id="clipPath4394-6" clipPathUnits="userSpaceOnUse"><circle style="opacity:1;fill:#67a100;fill-opacity:1;stroke:none;stroke-width:2;stroke-miterlimit:4;stroke-dasharray:none;stroke-opacity:1" id="circle4396-1" cx="50" cy="992.362" r="21"/></clipPath><clipPath id="clipPath4388-9" clipPathUnits="userSpaceOnUse"><circle style="opacity:1;fill:#67a100;fill-opacity:1;stroke:none;stroke-width:2;stroke-miterlimit:4;stroke-dasharray:none;stroke-opacity:1" id="circle4390-9" cx="50" cy="992.362" r="21"/></clipPath><clipPath id="clipPath4382-6" clipPathUnits="userSpaceOnUse"><ellipse style="opacity:1;fill:#67a100;fill-opacity:1;stroke:none;stroke-width:2;stroke-miterlimit:4;stroke-dasharray:none;stroke-opacity:1" id="ellipse4384-7" cx="50" cy="992.862" rx="21" ry="21.5"/></clipPath><clipPath id="clipPath4394-1" clipPathUnits="userSpaceOnUse"><circle style="opacity:1;fill:#67a100;fill-opacity:1;stroke:none;stroke-width:2;stroke-miterlimit:4;stroke-dasharray:none;stroke-opacity:1" id="circle4396-7" cx="50" cy="992.362" r="21"/></clipPath><clipPath id="clipPath4388-6" clipPathUnits="userSpaceOnUse"><circle style="opacity:1;fill:#67a100;fill-opacity:1;stroke:none;stroke-width:2;stroke-miterlimit:4;stroke-dasharray:none;stroke-opacity:1" id="circle4390-1" cx="50" cy="992.362" r="21"/></clipPath><clipPath id="clipPath4376-1" clipPathUnits="userSpaceOnUse"><ellipse style="opacity:1;fill:#67a100;fill-opacity:1;stroke:none;stroke-width:2;stroke-miterlimit:4;stroke-dasharray:none;stroke-opacity:1" id="ellipse4378-3" cx="50" cy="992.862" rx="21" ry="20.5"/></clipPath><clipPath id="clipPath4955" clipPathUnits="userSpaceOnUse"><rect style="opacity:1;fill:#f33600;fill-opacity:1;stroke:none;stroke-width:2.79999995;stroke-linejoin:round;stroke-miterlimit:4;stroke-dasharray:none;stroke-opacity:1" id="rect4957" width="60" height="25" x="20" y="990.362" ry="3"/></clipPath><clipPath id="clipPath4962" clipPathUnits="userSpaceOnUse"><circle style="opacity:1;fill:#f33600;fill-opacity:1;stroke:none;stroke-width:2.79999995;stroke-linejoin:round;stroke-miterlimit:4;stroke-dasharray:none;stroke-opacity:1" id="circle4964" cx="50" cy="44" r="15"/></clipPath></defs><metadata id="metadata7"/><g id="layer1" transform="translate(0,-952.36216)"><path style="fill:none;fill-rule:evenodd;stroke:#000;stroke-width:1px;stroke-linecap:butt;stroke-linejoin:miter;stroke-opacity:1" id="path4763" d="m -600,752.36216 0,0"/><g id="g4223"><path id="path4358" d="m 50,992.36216 5.677324,-20.4157 8.206258,4.68191 4.257601,5.33413 2.574196,6.91365 z" clip-path="none" transform="matrix(0.73507962,0,0,0.72746634,13.31575,270.3128)" style="fill:#d98246;fill-opacity:1;fill-rule:evenodd;stroke:none;stroke-width:1px;stroke-linecap:butt;stroke-linejoin:miter;stroke-opacity:1"/><path id="path4360" d="m 50,992.36216 3.677324,-21.02321 -10.522852,1.06075 -8.787662,5.8785 z" clip-path="none" transform="matrix(0.73507962,0,0,0.72746634,13.31575,270.3128)" style="fill:#e69f69;fill-opacity:1;fill-rule:evenodd;stroke:none;stroke-width:1px;stroke-linecap:butt;stroke-linejoin:miter;stroke-opacity:1"/><path id="path4362" d="m 50,992.36216 -17.212338,-12.71946 -3.759514,10.96246 2.541095,12.27104 4.917811,5.4812 12.573068,5.1495 10.496959,-2.4532 z" clip-path="none" transform="matrix(0.73507962,0,0,0.72746634,13.31575,270.3128)" style="opacity:1;fill:#ffd3b4;fill-opacity:1;fill-rule:evenodd;stroke:none;stroke-width:1px;stroke-linecap:butt;stroke-linejoin:miter;stroke-opacity:1"/><path id="path4364" d="m 50,992.36216 11.677324,17.75224 7.573068,-8.8177 1.743527,-10.05604 z" clip-path="none" transform="matrix(0.73507962,0,0,0.72746634,13.31575,270.3128)" style="fill:#2ecc71;fill-opacity:1;fill-rule:evenodd;stroke:none;stroke-width:1px;stroke-linecap:butt;stroke-linejoin:miter;stroke-opacity:1"/><path style="opacity:1;fill:#31363b;fill-opacity:1;stroke:none;stroke-width:2;stroke-miterlimit:4;stroke-dasharray:none;stroke-opacity:1" id="path4205-5" d="m 49.977845,976.19447 a 16.10437,15.937576 0 0 0 -16.104273,15.93747 16.10437,15.937576 0 0 0 16.104273,15.93746 16.10437,15.937576 0 0 0 16.104274,-15.93746 16.10437,15.937576 0 0 0 -16.104274,-15.93747 z m 0.09188,1.47908 A 14.701592,14.549327 0 0 1 64.771322,992.22288 14.701592,14.549327 0 0 1 50.06973,1006.7722 14.701592,14.549327 0 0 1 35.368138,992.22288 14.701592,14.549327 0 0 1 50.06973,977.67355 Z"/><path id="rect4196-3" d="m 35.171664,970.39889 c -3.963674,0 -7.154321,3.1576 -7.154321,7.08022 l 0,43.79439 c 0,3.9227 3.190647,7.0802 7.154321,7.0802 l 29.612365,0 c 3.963674,0 7.154321,-3.1575 7.154321,-7.0802 l 0,-43.79439 c 0,-3.92262 -3.190647,-7.08022 -7.154321,-7.08022 l -29.612365,0 z m 0.165846,2.89773 29.280672,0 c 2.433205,0 4.392101,1.93861 4.392101,4.34661 l 0,43.46617 c 0,2.408 -1.958896,4.3466 -4.392101,4.3466 l -14.640336,0 0,-5.7956 -4.3921,0 -5.856134,0 c -4.392102,0 -4.392102,-4.3466 -4.392102,-4.3466 l 0,-7.2443 -1.464033,0 -2.928068,0 0,-30.42627 c 0,-2.408 1.958896,-4.34661 4.392101,-4.34661 z m -1.464033,47.81278 a 1.4640336,1.4488705 0 0 1 1.464033,1.4488 1.4640336,1.4488705 0 0 1 -1.464033,1.4489 1.4640336,1.4488705 0 0 1 -1.464034,-1.4489 1.4640336,1.4488705 0 0 1 1.464034,-1.4488 z" style="opacity:1;fill:#31363b;fill-opacity:1;stroke:none;stroke-width:2;stroke-miterlimit:4;stroke-dasharray:none;stroke-opacity:1"/><ellipse id="path4212-4" cx="33.873" cy="976.194" rx="1.464" ry="1.449" style="opacity:1;fill:#31363b;fill-opacity:1;stroke:none;stroke-width:2;stroke-miterlimit:4;stroke-dasharray:none;stroke-opacity:1"/><ellipse id="path4214-4" cx="66.082" cy="976.194" rx="1.464" ry="1.449" style="opacity:1;fill:#31363b;fill-opacity:1;stroke:none;stroke-width:2;stroke-miterlimit:4;stroke-dasharray:none;stroke-opacity:1"/><ellipse id="path4216-6" cx="50.108" cy="992.261" rx="1.464" ry="1.449" style="opacity:1;fill:#3b3a40;fill-opacity:1;stroke:none;stroke-width:2;stroke-miterlimit:4;stroke-dasharray:none;stroke-opacity:1"/><path id="path4224-1" d="m 46.923963,1001.6034 a 1.6604496,1.6432522 0 0 0 -1.343936,0.6763 l -8.784201,8.6734 0,2.9175 0,1.4489 0.0057,0 a 2.9280672,2.897741 0 0 0 2.922357,2.8921 l 0,0.01 1.464034,0 2.936644,0 4.389242,-14.4944 -0.0029,0 a 1.6604496,1.6432522 0 0 0 0.07149,-0.4753 1.6604496,1.6432522 0 0 0 -1.658476,-1.6414 z" style="opacity:1;fill:#31363b;fill-opacity:1;stroke:none;stroke-width:2;stroke-miterlimit:4;stroke-dasharray:none;stroke-opacity:1"/><ellipse id="path4231-2" cx="66.082" cy="1022.558" rx="1.464" ry="1.449" style="opacity:1;fill:#31363b;fill-opacity:1;stroke:none;stroke-width:2;stroke-miterlimit:4;stroke-dasharray:none;stroke-opacity:1"/><path id="path5232" d="m 56.19531,1009.3864 a 5.5,5.5 0 0 0 -0.44531,0.2266 5.5,5.5 0 0 0 -2.01367,7.5137 5.5,5.5 0 0 0 3.18945,2.5117 L 56,1037.8767 l 2,2 1,0 2,-2 -0.91211,-18.2403 a 5.5,5.5 0 0 0 1.16211,-0.4961 5.5,5.5 0 0 0 2.01367,-7.5136 5.5,5.5 0 0 0 -0.27344,-0.42 l -1.70898,0.9864 -0.23242,3.5996 -4.96485,-0.5996 1.09961,-4.0977 -0.98828,-1.709 z" style="fill:#31363b;fill-opacity:1;fill-rule:evenodd;stroke:none;stroke-width:1px;stroke-linecap:butt;stroke-linejoin:miter;stroke-opacity:1"/></g></g></svg>