<svg xmlns="http://www.w3.org/2000/svg" xmlns:svg="http://www.w3.org/2000/svg" id="svg2" width="100" height="100" version="1.1" viewBox="0 0 100 100"><defs id="defs4"><clipPath id="clipPath4376" clipPathUnits="userSpaceOnUse"><ellipse style="opacity:1;fill:#67a100;fill-opacity:1;stroke:none;stroke-width:2;stroke-miterlimit:4;stroke-dasharray:none;stroke-opacity:1" id="ellipse4378" cx="50" cy="992.862" rx="21" ry="20.5"/></clipPath><clipPath id="clipPath4382" clipPathUnits="userSpaceOnUse"><ellipse style="opacity:1;fill:#67a100;fill-opacity:1;stroke:none;stroke-width:2;stroke-miterlimit:4;stroke-dasharray:none;stroke-opacity:1" id="ellipse4384" cx="50" cy="992.862" rx="21" ry="21.5"/></clipPath><clipPath id="clipPath4388" clipPathUnits="userSpaceOnUse"><circle style="opacity:1;fill:#67a100;fill-opacity:1;stroke:none;stroke-width:2;stroke-miterlimit:4;stroke-dasharray:none;stroke-opacity:1" id="circle4390" cx="50" cy="992.362" r="21"/></clipPath><clipPath id="clipPath4394" clipPathUnits="userSpaceOnUse"><circle style="opacity:1;fill:#67a100;fill-opacity:1;stroke:none;stroke-width:2;stroke-miterlimit:4;stroke-dasharray:none;stroke-opacity:1" id="circle4396" cx="50" cy="992.362" r="21"/></clipPath><clipPath id="clipPath4376-6" clipPathUnits="userSpaceOnUse"><ellipse style="opacity:1;fill:#67a100;fill-opacity:1;stroke:none;stroke-width:2;stroke-miterlimit:4;stroke-dasharray:none;stroke-opacity:1" id="ellipse4378-8" cx="50" cy="992.862" rx="21" ry="20.5"/></clipPath><clipPath id="clipPath4382-2" clipPathUnits="userSpaceOnUse"><ellipse style="opacity:1;fill:#67a100;fill-opacity:1;stroke:none;stroke-width:2;stroke-miterlimit:4;stroke-dasharray:none;stroke-opacity:1" id="ellipse4384-3" cx="50" cy="992.862" rx="21" ry="21.5"/></clipPath><clipPath id="clipPath4394-6" clipPathUnits="userSpaceOnUse"><circle style="opacity:1;fill:#67a100;fill-opacity:1;stroke:none;stroke-width:2;stroke-miterlimit:4;stroke-dasharray:none;stroke-opacity:1" id="circle4396-1" cx="50" cy="992.362" r="21"/></clipPath><clipPath id="clipPath4388-9" clipPathUnits="userSpaceOnUse"><circle style="opacity:1;fill:#67a100;fill-opacity:1;stroke:none;stroke-width:2;stroke-miterlimit:4;stroke-dasharray:none;stroke-opacity:1" id="circle4390-9" cx="50" cy="992.362" r="21"/></clipPath><clipPath id="clipPath4382-6" clipPathUnits="userSpaceOnUse"><ellipse style="opacity:1;fill:#67a100;fill-opacity:1;stroke:none;stroke-width:2;stroke-miterlimit:4;stroke-dasharray:none;stroke-opacity:1" id="ellipse4384-7" cx="50" cy="992.862" rx="21" ry="21.5"/></clipPath><clipPath id="clipPath4394-1" clipPathUnits="userSpaceOnUse"><circle style="opacity:1;fill:#67a100;fill-opacity:1;stroke:none;stroke-width:2;stroke-miterlimit:4;stroke-dasharray:none;stroke-opacity:1" id="circle4396-7" cx="50" cy="992.362" r="21"/></clipPath><clipPath id="clipPath4388-6" clipPathUnits="userSpaceOnUse"><circle style="opacity:1;fill:#67a100;fill-opacity:1;stroke:none;stroke-width:2;stroke-miterlimit:4;stroke-dasharray:none;stroke-opacity:1" id="circle4390-1" cx="50" cy="992.362" r="21"/></clipPath><clipPath id="clipPath4376-1" clipPathUnits="userSpaceOnUse"><ellipse style="opacity:1;fill:#67a100;fill-opacity:1;stroke:none;stroke-width:2;stroke-miterlimit:4;stroke-dasharray:none;stroke-opacity:1" id="ellipse4378-3" cx="50" cy="992.862" rx="21" ry="20.5"/></clipPath><clipPath id="clipPath4955" clipPathUnits="userSpaceOnUse"><rect style="opacity:1;fill:#f33600;fill-opacity:1;stroke:none;stroke-width:2.79999995;stroke-linejoin:round;stroke-miterlimit:4;stroke-dasharray:none;stroke-opacity:1" id="rect4957" width="60" height="25" x="20" y="990.362" ry="3"/></clipPath><clipPath id="clipPath4962" clipPathUnits="userSpaceOnUse"><circle style="opacity:1;fill:#f33600;fill-opacity:1;stroke:none;stroke-width:2.79999995;stroke-linejoin:round;stroke-miterlimit:4;stroke-dasharray:none;stroke-opacity:1" id="circle4964" cx="50" cy="44" r="15"/></clipPath></defs><metadata id="metadata7"/><g id="layer1" transform="translate(0,-952.36216)"><path style="fill:none;fill-rule:evenodd;stroke:#000;stroke-width:1px;stroke-linecap:butt;stroke-linejoin:miter;stroke-opacity:1" id="path4763" d="m -600,752.36216 0,0"/><g id="g4218"><g id="g4568" transform="matrix(1.0337074,0,0,1.0326542,3.6558031,-39.163288)"><ellipse style="opacity:1;fill:#2ecc71;fill-opacity:1;stroke:none;stroke-width:2.79999995;stroke-linejoin:round;stroke-miterlimit:4;stroke-dasharray:none;stroke-opacity:1" id="path4971-1" cx="40.88" cy="1001.231" rx="15.005" ry="14.729"/><path id="path4205-5-8-4" d="m 40.853284,985.33496 a 16.10437,15.937576 0 0 0 -16.104273,15.93744 16.10437,15.937576 0 0 0 16.104273,15.9375 16.10437,15.937576 0 0 0 16.104274,-15.9375 16.10437,15.937576 0 0 0 -16.104274,-15.93744 z m 0.09188,1.47908 a 14.701592,14.549327 0 0 1 14.701597,14.54936 14.701592,14.549327 0 0 1 -14.701592,14.5493 14.701592,14.549327 0 0 1 -14.701592,-14.5493 14.701592,14.549327 0 0 1 14.701592,-14.54936 z" style="opacity:1;fill:#31363b;fill-opacity:1;stroke:none;stroke-width:2;stroke-miterlimit:4;stroke-dasharray:none;stroke-opacity:1"/><path style="opacity:1;fill:#31363b;fill-opacity:1;stroke:none;stroke-width:2;stroke-miterlimit:4;stroke-dasharray:none;stroke-opacity:1" id="rect4196-3-2-6" d="m 26.047103,979.53938 c -3.963674,0 -7.154322,3.1576 -7.154322,7.08022 l 0,43.7945 c 0,3.9227 3.190648,7.0802 7.154322,7.0802 l 29.612365,0 c 3.963674,0 7.154321,-3.1575 7.154321,-7.0802 l 0,-43.7945 c 0,-3.92262 -3.190647,-7.08022 -7.154321,-7.08022 l -29.612365,0 z m 0.165846,2.89773 29.280672,0 c 2.433205,0 4.392101,1.93861 4.392101,4.34661 l 0,43.46628 c 0,2.408 -1.958896,4.3466 -4.392101,4.3466 l -14.640336,0 0,-5.7956 -4.3921,0 -5.856134,0 c -4.392102,0 -4.392102,-4.3467 -4.392102,-4.3467 l 0,-7.2443 -1.464033,0 -2.928068,0 0,-30.42628 c 0,-2.408 1.958896,-4.34661 4.392101,-4.34661 z M 24.748916,1030.25 a 1.4640336,1.4488705 0 0 1 1.464033,1.4488 1.4640336,1.4488705 0 0 1 -1.464033,1.4489 1.4640336,1.4488705 0 0 1 -1.464034,-1.4489 1.4640336,1.4488705 0 0 1 1.464034,-1.4488 z"/><ellipse style="opacity:1;fill:#31363b;fill-opacity:1;stroke:none;stroke-width:2;stroke-miterlimit:4;stroke-dasharray:none;stroke-opacity:1" id="path4212-4-9-5" cx="24.749" cy="985.335" rx="1.464" ry="1.449"/><ellipse style="opacity:1;fill:#31363b;fill-opacity:1;stroke:none;stroke-width:2;stroke-miterlimit:4;stroke-dasharray:none;stroke-opacity:1" id="path4214-4-5-2" cx="56.958" cy="985.335" rx="1.464" ry="1.449"/><ellipse style="opacity:1;fill:#31363b;fill-opacity:1;stroke:none;stroke-width:2;stroke-miterlimit:4;stroke-dasharray:none;stroke-opacity:1" id="path4216-6-6-3" cx="40.983" cy="1001.401" rx="1.464" ry="1.449"/><path style="opacity:1;fill:#31363b;fill-opacity:1;stroke:none;stroke-width:2;stroke-miterlimit:4;stroke-dasharray:none;stroke-opacity:1" id="path4224-1-5-6" d="m 37.799402,1010.7439 a 1.6604496,1.6432522 0 0 0 -1.343936,0.6763 l -8.784201,8.6734 0,2.9175 0,1.4489 0.0057,0 a 2.9280672,2.897741 0 0 0 2.922357,2.8922 l 0,0.01 1.464034,0 2.936644,0 4.389242,-14.4945 -0.0029,0 a 1.6604496,1.6432522 0 0 0 0.07149,-0.4753 1.6604496,1.6432522 0 0 0 -1.658476,-1.6414 z"/><ellipse style="opacity:1;fill:#31363b;fill-opacity:1;stroke:none;stroke-width:2;stroke-miterlimit:4;stroke-dasharray:none;stroke-opacity:1" id="path4231-2-9-5" cx="56.958" cy="1031.699" rx="1.464" ry="1.449"/></g><path id="path4870-1" d="m 45.724909,1036.5035 35.400121,0 -17.70006,-28.1878 z" style="fill:#f3ad00;fill-opacity:1;fill-rule:evenodd;stroke:#943500;stroke-width:1.74133098;stroke-linecap:butt;stroke-linejoin:round;stroke-miterlimit:4;stroke-dasharray:none;stroke-opacity:1"/><g id="flowRoot4872-0" transform="matrix(1.2391643,0,0,1.2267993,107.86061,970.12059)" style="font-style:normal;font-weight:400;font-size:40px;line-height:125%;font-family:sans-serif;letter-spacing:0;word-spacing:0;fill:#000;fill-opacity:1;stroke:none;stroke-width:1px;stroke-linecap:butt;stroke-linejoin:miter;stroke-opacity:1"><path id="path4216" d="m -36.982422,49.454514 1.982422,0 0,2.480469 -1.982422,0 0,-2.480469 z m 0,-12.099609 1.982422,0 0,6.396484 -0.195312,3.486329 -1.582032,0 -0.205078,-3.486329 0,-6.396484 z" style="font-size:20px"/></g></g></g></svg>