<svg xmlns="http://www.w3.org/2000/svg" xmlns:svg="http://www.w3.org/2000/svg" id="svg2" width="100" height="100" version="1.1" viewBox="0 0 100 100"><defs id="defs4"><clipPath id="clipPath4376-6" clipPathUnits="userSpaceOnUse"><ellipse style="opacity:1;fill:#67a100;fill-opacity:1;stroke:none;stroke-width:2;stroke-miterlimit:4;stroke-dasharray:none;stroke-opacity:1" id="ellipse4378-8" cx="50" cy="992.862" rx="21" ry="20.5"/></clipPath><clipPath id="clipPath4382-2" clipPathUnits="userSpaceOnUse"><ellipse style="opacity:1;fill:#67a100;fill-opacity:1;stroke:none;stroke-width:2;stroke-miterlimit:4;stroke-dasharray:none;stroke-opacity:1" id="ellipse4384-3" cx="50" cy="992.862" rx="21" ry="21.5"/></clipPath><clipPath id="clipPath4394-6" clipPathUnits="userSpaceOnUse"><circle style="opacity:1;fill:#67a100;fill-opacity:1;stroke:none;stroke-width:2;stroke-miterlimit:4;stroke-dasharray:none;stroke-opacity:1" id="circle4396-1" cx="50" cy="992.362" r="21"/></clipPath><clipPath id="clipPath4388-9" clipPathUnits="userSpaceOnUse"><circle style="opacity:1;fill:#67a100;fill-opacity:1;stroke:none;stroke-width:2;stroke-miterlimit:4;stroke-dasharray:none;stroke-opacity:1" id="circle4390-9" cx="50" cy="992.362" r="21"/></clipPath><clipPath id="clipPath4382-6" clipPathUnits="userSpaceOnUse"><ellipse style="opacity:1;fill:#67a100;fill-opacity:1;stroke:none;stroke-width:2;stroke-miterlimit:4;stroke-dasharray:none;stroke-opacity:1" id="ellipse4384-7" cx="50" cy="992.862" rx="21" ry="21.5"/></clipPath><clipPath id="clipPath4394-1" clipPathUnits="userSpaceOnUse"><circle style="opacity:1;fill:#67a100;fill-opacity:1;stroke:none;stroke-width:2;stroke-miterlimit:4;stroke-dasharray:none;stroke-opacity:1" id="circle4396-7" cx="50" cy="992.362" r="21"/></clipPath><clipPath id="clipPath4388-6" clipPathUnits="userSpaceOnUse"><circle style="opacity:1;fill:#67a100;fill-opacity:1;stroke:none;stroke-width:2;stroke-miterlimit:4;stroke-dasharray:none;stroke-opacity:1" id="circle4390-1" cx="50" cy="992.362" r="21"/></clipPath><clipPath id="clipPath4376-1" clipPathUnits="userSpaceOnUse"><ellipse style="opacity:1;fill:#67a100;fill-opacity:1;stroke:none;stroke-width:2;stroke-miterlimit:4;stroke-dasharray:none;stroke-opacity:1" id="ellipse4378-3" cx="50" cy="992.862" rx="21" ry="20.5"/></clipPath><clipPath id="clipPath4955" clipPathUnits="userSpaceOnUse"><rect style="opacity:1;fill:#f33600;fill-opacity:1;stroke:none;stroke-width:2.79999995;stroke-linejoin:round;stroke-miterlimit:4;stroke-dasharray:none;stroke-opacity:1" id="rect4957" width="60" height="25" x="20" y="990.362" ry="3"/></clipPath><clipPath id="clipPath4962" clipPathUnits="userSpaceOnUse"><circle style="opacity:1;fill:#f33600;fill-opacity:1;stroke:none;stroke-width:2.79999995;stroke-linejoin:round;stroke-miterlimit:4;stroke-dasharray:none;stroke-opacity:1" id="circle4964" cx="50" cy="44" r="15"/></clipPath></defs><metadata id="metadata7"/><g id="layer1" transform="translate(0,-952.36216)"><path style="fill:none;fill-rule:evenodd;stroke:#000;stroke-width:1px;stroke-linecap:butt;stroke-linejoin:miter;stroke-opacity:1" id="path4763" d="m -600,752.36216 0,0"/><g id="g4245"><path id="path4358" d="m 50.069731,992.22287 4.173285,-14.85174 6.032253,3.40594 3.129676,3.8804 1.892239,5.02944 z" clip-path="none" style="fill:#898278;fill-opacity:1;fill-rule:evenodd;stroke:none;stroke-width:1px;stroke-linecap:butt;stroke-linejoin:miter;stroke-opacity:1"/><path id="path4360" d="m 50.069731,992.22287 2.703126,-15.29368 -7.735134,0.77166 -6.459631,4.27641 z" clip-path="none" style="fill:#a79f97;fill-opacity:1;fill-rule:evenodd;stroke:none;stroke-width:1px;stroke-linecap:butt;stroke-linejoin:miter;stroke-opacity:1"/><path id="path4362" d="m 50.069731,992.22287 -12.652439,-9.25298 -2.763542,7.97482 1.867907,8.92677 3.614983,3.98742 9.242206,3.7461 7.7161,-1.7847 z" clip-path="none" style="opacity:1;fill:#d9d3cd;fill-opacity:1;fill-rule:evenodd;stroke:none;stroke-width:1px;stroke-linecap:butt;stroke-linejoin:miter;stroke-opacity:1"/><path id="path4364" d="m 50.069731,992.22287 8.583763,12.91413 5.566808,-6.41455 1.281631,-7.31544 z" clip-path="none" style="fill:#f67400;fill-opacity:1;fill-rule:evenodd;stroke:none;stroke-width:1px;stroke-linecap:butt;stroke-linejoin:miter;stroke-opacity:1"/><path style="opacity:1;fill:#31363b;fill-opacity:1;stroke:none;stroke-width:2;stroke-miterlimit:4;stroke-dasharray:none;stroke-opacity:1" id="path4205-5" d="m 49.977845,976.19447 a 16.10437,15.937576 0 0 0 -16.104273,15.93747 16.10437,15.937576 0 0 0 16.104273,15.93746 16.10437,15.937576 0 0 0 16.104274,-15.93746 16.10437,15.937576 0 0 0 -16.104274,-15.93747 z m 0.09188,1.47908 A 14.701592,14.549327 0 0 1 64.771322,992.22288 14.701592,14.549327 0 0 1 50.06973,1006.7722 14.701592,14.549327 0 0 1 35.368138,992.22288 14.701592,14.549327 0 0 1 50.06973,977.67355 Z"/><path id="rect4196-3" d="m 35.171664,970.39889 c -3.963674,0 -7.154321,3.1576 -7.154321,7.08022 l 0,43.79439 c 0,3.9227 3.190647,7.0802 7.154321,7.0802 l 29.612365,0 c 3.963674,0 7.154321,-3.1575 7.154321,-7.0802 l 0,-43.79439 c 0,-3.92262 -3.190647,-7.08022 -7.154321,-7.08022 l -29.612365,0 z m 0.165846,2.89773 29.280672,0 c 2.433205,0 4.392101,1.93861 4.392101,4.34661 l 0,43.46617 c 0,2.408 -1.958896,4.3466 -4.392101,4.3466 l -14.640336,0 0,-5.7956 -4.3921,0 -5.856134,0 c -4.392102,0 -4.392102,-4.3466 -4.392102,-4.3466 l 0,-7.2443 -1.464033,0 -2.928068,0 0,-30.42627 c 0,-2.408 1.958896,-4.34661 4.392101,-4.34661 z m -1.464033,47.81278 a 1.4640336,1.4488705 0 0 1 1.464033,1.4488 1.4640336,1.4488705 0 0 1 -1.464033,1.4489 1.4640336,1.4488705 0 0 1 -1.464034,-1.4489 1.4640336,1.4488705 0 0 1 1.464034,-1.4488 z" style="opacity:1;fill:#31363b;fill-opacity:1;stroke:none;stroke-width:2;stroke-miterlimit:4;stroke-dasharray:none;stroke-opacity:1"/><ellipse id="path4212-4" cx="33.873" cy="976.194" rx="1.464" ry="1.449" style="opacity:1;fill:#31363b;fill-opacity:1;stroke:none;stroke-width:2;stroke-miterlimit:4;stroke-dasharray:none;stroke-opacity:1"/><ellipse id="path4214-4" cx="66.082" cy="976.194" rx="1.464" ry="1.449" style="opacity:1;fill:#31363b;fill-opacity:1;stroke:none;stroke-width:2;stroke-miterlimit:4;stroke-dasharray:none;stroke-opacity:1"/><ellipse id="path4216-6" cx="50.108" cy="992.261" rx="1.464" ry="1.449" style="opacity:1;fill:#31363b;fill-opacity:1;stroke:none;stroke-width:2;stroke-miterlimit:4;stroke-dasharray:none;stroke-opacity:1"/><path id="path4224-1" d="m 46.923963,1001.6034 a 1.6604496,1.6432522 0 0 0 -1.343936,0.6763 l -8.784201,8.6734 0,2.9175 0,1.4489 0.0057,0 a 2.9280672,2.897741 0 0 0 2.922357,2.8921 l 0,0.01 1.464034,0 2.936644,0 4.389242,-14.4944 -0.0029,0 a 1.6604496,1.6432522 0 0 0 0.07149,-0.4753 1.6604496,1.6432522 0 0 0 -1.658476,-1.6414 z" style="opacity:1;fill:#31363b;fill-opacity:1;stroke:none;stroke-width:2;stroke-miterlimit:4;stroke-dasharray:none;stroke-opacity:1"/><ellipse id="path4231-2" cx="66.082" cy="1022.558" rx="1.464" ry="1.449" style="opacity:1;fill:#31363b;fill-opacity:1;stroke:none;stroke-width:2;stroke-miterlimit:4;stroke-dasharray:none;stroke-opacity:1"/></g></g></svg>